<svg transform="scale(1)" version="1.1" id="Layer_1" xmlns="http://www.w3.org/2000/svg" xmlns:xlink="http://www.w3.org/1999/xlink" x="0px" y="0px" viewBox="0 0 500 500" xml:space="preserve" class="show_show__wrapper__graphic__5Waiy "><title>React</title><style type="text/css">
	.st0{fill:#231F20;}
	.st1{fill:#FFFFFF;}
	.st2{fill:#D1D3D4;}
	.st3{fill:#FFD2B8;}
</style><g id="Base"><polygon class="st0" points="99.7,142.1 94.6,161.5 114.4,157.1 	"></polygon><polygon class="st1" points="418.1,321.6 216.2,412.8 59.8,175 127.2,144.6 196.9,113.1 261.8,83.8 	"></polygon><path class="st0" d="M216.2,413.8c-0.3,0-0.7-0.2-0.8-0.5L59,175.6c-0.2-0.2-0.2-0.5-0.1-0.8c0.1-0.3,0.3-0.5,0.5-0.6l201.9-91.2
		c0.4-0.2,1,0,1.2,0.4L418.9,321c0.2,0.2,0.2,0.5,0.1,0.8c-0.1,0.3-0.3,0.5-0.5,0.6l-201.9,91.2
		C216.4,413.7,216.3,413.8,216.2,413.8z M61.3,175.4l155.2,236.1l200.1-90.4l-155.2-236L61.3,175.4z"></path><polygon class="st0" points="210.3,430.7 214.8,412.2 58.5,174.5 54,192.9 	"></polygon><polygon class="st0" points="416.7,321 214.8,412.2 209.9,430.3 411.8,339.1 	"></polygon></g><g id="Paper"><polygon class="st1" points="401.3,314.7 216.8,398 73.9,180.8 124.9,157.8 135.5,153 199.2,124.2 201.2,123.3 258.4,97.5 	"></polygon><path class="st0" d="M216.4,399.3l-0.5-0.7L72.4,180.4l186.3-84.1l0.5,0.7l143.5,218.2l-1.1,0.5L216.4,399.3z M75.4,181.3
		l141.7,215.5l182.6-82.5L258.1,98.7L75.4,181.3z"></path><polygon class="st1" points="171.9,284.7 319,220.1 379.8,305.8 231.1,371.5 	"></polygon><path class="st2" d="M231.1,372.5c-0.3,0-0.6-0.2-0.8-0.4l-59.2-86.9c-0.2-0.2-0.2-0.6-0.1-0.8c0.1-0.3,0.3-0.5,0.6-0.6l147.1-64.6
		c0.4-0.2,0.9,0,1.2,0.3l60.8,85.8c0.3,0.5,0.2,1.1-0.2,1.4c-0.1,0-0.1,0.1-0.2,0.1l-148.7,65.7
		C231.4,372.5,231.2,372.5,231.1,372.5z M173.4,285.1l58,85.2l146.9-64.9l-59.6-84.1L173.4,285.1z"></path><polygon class="st1" points="112.2,198.9 264.2,130.5 279.9,154.4 129,221.1 	"></polygon><path class="st2" d="M129,222.1c-0.3,0-0.6-0.1-0.8-0.4l-16.8-22.2c-0.2-0.2-0.2-0.6-0.2-0.9c0.1-0.3,0.3-0.5,0.6-0.7l152-68.4
		c0.4-0.2,0.9,0,1.2,0.4l15.7,23.9c0.2,0.2,0.2,0.5,0.1,0.8c-0.1,0.3-0.3,0.5-0.6,0.6l-150.9,66.8
		C129.3,222.2,129.1,222.2,129,222.1z M113.7,199.3l15.6,20.6l149.1-66l-14.6-22.2L113.7,199.3z"></path><polygon class="st1" points="134.5,231.5 283.2,162.5 298.9,185.3 148,250.5 	"></polygon><path class="st2" d="M148,251.5c-0.3,0-0.6-0.2-0.8-0.4l-13.6-19c-0.3-0.4-0.2-1.1,0.2-1.4c0.1,0,0.1-0.1,0.2-0.1l148.7-68.9
		c0.5-0.2,1,0,1.3,0.4l15.7,22.8c0.2,0.2,0.2,0.6,0.1,0.8c-0.1,0.3-0.3,0.5-0.6,0.6l-150.9,65.1C148.3,251.5,148.1,251.5,148,251.5z
		 M136,231.9l12.4,17.4l149-64.3l-14.6-21.1L136,231.9z"></path><polygon class="st1" points="153.5,260.2 302.7,193.5 316.3,211.4 164.3,276.5 	"></polygon><path class="st2" d="M164.3,277.5c-0.3,0-0.6-0.2-0.8-0.5l-10.9-16.3c-0.2-0.2-0.2-0.5-0.1-0.8c0.1-0.3,0.3-0.5,0.6-0.6l149.3-66.8
		c0.4-0.2,0.9-0.1,1.2,0.3l13.6,17.9c0.2,0.2,0.2,0.6,0.2,0.9c-0.1,0.3-0.3,0.5-0.6,0.7l-152,65.1
		C164.6,277.5,164.5,277.5,164.3,277.5z M155,260.7l9.7,14.6l150-64.3l-12.3-16.3L155,260.7z"></path></g><g id="Approval_Stamp"><ellipse class="st1" transform="matrix(0.1509 -0.9885 0.9885 0.1509 -23.0356 540.5516)" cx="303.2" cy="283.7" rx="36.9" ry="40.2"></ellipse><path class="st0" d="M304.2,321.7c-2.3,0-4.5-0.2-6.8-0.5c-10.6-1.5-20.3-7-27.1-15.4c-12.7-15.2-10.6-37.8,4.6-50.5
		c1.1-0.9,2.3-1.8,3.5-2.6c18.6-12.1,43.4-8.3,57.6,8.8c6.5,7.9,9.4,18.2,7.9,28.4C341,308.5,323.9,321.7,304.2,321.7z M302,247.7
		c-8,0-15.8,2.3-22.5,6.7c-15.7,10.1-20.3,31-10.2,46.8c0.8,1.2,1.6,2.3,2.5,3.4c6.5,7.9,15.7,13.2,25.9,14.6
		c21.4,3.3,41.2-10,44.2-29.6c1.4-9.6-1.3-19.3-7.5-26.8c-6.5-7.9-15.7-13.2-25.9-14.6C306.4,247.9,304.2,247.7,302,247.7L302,247.7
		z"></path><path class="st0" d="M309.8,297.3c-0.1,0-0.2,0-0.3,0l-30.8-8.8c-0.5-0.2-0.8-0.7-0.6-1.3c0.2-0.5,0.7-0.8,1.2-0.6l29.9,8.5
		l20.8-58.6c0.2-0.5,0.7-0.8,1.2-0.7c0.5,0.2,0.8,0.7,0.7,1.2c0,0,0,0.1,0,0.1l-21.1,59.5C310.6,297.1,310.2,297.3,309.8,297.3z"></path></g><g id="Stamp"><ellipse class="st0" transform="matrix(0.5296 -0.8482 0.8482 0.5296 -62.0733 389.7285)" cx="320.4" cy="250.8" rx="36.9" ry="40.2"></ellipse><ellipse class="st3" transform="matrix(0.5296 -0.8482 0.8482 0.5296 -54.4939 391.3898)" cx="325.7" cy="244.8" rx="30.7" ry="33.4"></ellipse><ellipse class="st1" transform="matrix(0.8018 -0.5976 0.5976 0.8018 -71.3112 255.2376)" cx="349.1" cy="235.1" rx="31.4" ry="14.4"></ellipse><path class="st0" d="M332.2,258.2c-4,0-7.2-1.2-9.1-3.7c-2.5-3.4-2.1-8.7,1.2-14.8c3.2-5.9,8.7-11.9,15.5-17s14.2-8.7,20.7-10.1
		c6.8-1.4,11.9-0.4,14.5,3.1s2.1,8.7-1.2,14.8c-3.2,5.9-8.7,11.9-15.5,17l0,0C349,254.5,339.4,258.2,332.2,258.2z M366,214.1
		c-1.7,0-3.4,0.2-5,0.6c-6.2,1.3-13.3,4.8-19.9,9.7s-11.9,10.7-15,16.3c-2.9,5.4-3.4,9.9-1.3,12.6c4.4,5.8,19.2,2.5,32.4-7.4l0,0
		c6.6-4.9,11.9-10.7,15-16.3c2.9-5.4,3.4-9.8,1.4-12.6C372,215.1,369.5,214.1,366,214.1z M357.7,246.7L357.7,246.7z"></path><path class="st1" d="M313.6,220.5c0,0-6.3-0.2-7.8,13.2c-1.1,9.5,2.7,19.7,7.9,23.1c6.2,4.1,23.1,12.2,26.5,3.6
		c8.9-3.9,26-4.1,28.4-6.6c4.7-5-6.8-37.4-1.2-55.3c-15.8-2-34.7-8.7-41.2,7.6C316.1,208.7,315.4,215.2,313.6,220.5z"></path><path class="st0" d="M333.5,265.2c-7.2,0-16.8-5.2-20.4-7.5c-5.6-3.7-9.4-14.5-8.3-24.1c1.3-11.6,6.1-13.7,8-14.1
		c0.1-0.4,0.3-0.9,0.4-1.4c1.4-4.7,3.2-10.4,12.1-12.9c5.8-13.9,20.2-11.4,34.1-9.1c2.6,0.4,5.4,0.9,7.9,1.2
		c0.5,0.1,0.9,0.6,0.9,1.1c0,0.1,0,0.1,0,0.2c-3,9.7-0.9,24,0.8,35.4c1.5,10.3,2.6,17.7,0.2,20.3c-1.3,1.4-5.1,2-11.6,3
		c-5.7,0.9-12.2,1.8-16.7,3.7c-0.8,1.7-2.3,3.1-4.2,3.6C335.7,265.1,334.6,265.2,333.5,265.2z M313.6,221.5c-0.1,0-5.4,0.2-6.8,12.4
		c-1,8.7,2.4,18.9,7.4,22.2c4.6,3,16.1,8.7,22,6.9c1.4-0.4,2.6-1.4,3.1-2.8c0.1-0.2,0.3-0.4,0.5-0.5c4.8-2.1,11.6-3.1,17.6-4
		c4.5-0.7,9.6-1.4,10.5-2.4c1.8-1.9,0.6-10-0.7-18.6c-1.7-11.2-3.8-25.1-1.1-35.2c-2.3-0.3-4.6-0.7-6.9-1.1
		c-13.9-2.4-27-4.6-32.1,8.3c-0.1,0.3-0.4,0.5-0.7,0.6c-8.3,2.1-9.8,7-11.2,11.7c-0.2,0.7-0.4,1.4-0.6,2
		C314.5,221.2,314.1,221.5,313.6,221.5z"></path><path class="st1" d="M312.8,232.7c0,0-0.5,13.3,3.6,17.6c5.1,5.4,13.9,10.2,20.1,10.9c3.7,0.5,7.3-0.5,10.3-2.7"></path><path class="st0" d="M338.3,262.3c-0.6,0-1.2,0-1.8-0.1c-6.5-0.7-15.5-5.5-20.8-11.2c-4.3-4.6-3.9-17.8-3.9-18.4c0-0.6,0.5-1,1-1
		s1,0.5,1,1c-0.1,3.6,0.2,13.6,3.3,16.9c4.9,5.3,13.5,9.9,19.5,10.6c3.4,0.4,6.8-0.4,9.5-2.5c0.4-0.4,1-0.3,1.4,0.1
		c0.4,0.4,0.3,1-0.1,1.4l0,0C344.9,261.3,341.6,262.4,338.3,262.3z"></path><path class="st1" d="M321,225.1c0,0-0.4,16,3.5,20.8c2.2,2.7,13.4,8.8,18.9,11c3.6,1.3,7.4,1.6,11.2,0.8c2.6-1,5.7-3.8,4.5-6.1
		s-16.3-12-16.3-12"></path><path class="st0" d="M350.2,259.1c-2.5,0-4.9-0.4-7.2-1.3c-5.7-2.2-17-8.4-19.3-11.2c-4-5-3.7-20.8-3.7-21.4c0-0.6,0.4-1,1-1
		s1,0.4,1,1c-0.1,4.4,0.3,16.4,3.3,20.1c1.9,2.3,12.6,8.3,18.5,10.6c3.4,1.2,7,1.5,10.5,0.7c1.5-0.6,3.4-2,3.9-3.4
		c0.2-0.4,0.2-0.9,0-1.3c-0.6-1.3-8.6-6.9-15.9-11.6c-0.5-0.3-0.6-0.9-0.3-1.4s0.9-0.6,1.4-0.3c2.6,1.6,15.4,9.9,16.6,12.4
		c0.4,0.9,0.5,2,0.1,2.9c-0.8,2.1-3.1,3.8-5.1,4.6h-0.1C353.3,258.9,351.8,259.1,350.2,259.1z"></path><path class="st1" d="M329.5,216.7c0,0-2,13.8,1.4,20.1c4,7.4,23.4,13.7,23.4,13.7c4.6,1.6,11.1,2.3,12.8-0.2"></path><path class="st0" d="M362.3,253.1c-2.8-0.1-5.6-0.6-8.3-1.5c-0.8-0.3-19.9-6.5-24-14.2c-3.5-6.6-1.6-20.2-1.5-20.8
		c0.1-0.6,0.6-0.9,1.1-0.9c0.6,0.1,0.9,0.6,0.9,1.1l0,0c0,0.1-1.9,13.6,1.3,19.5c3.7,7,22.6,13.2,22.8,13.2c4.6,1.6,10.4,2,11.6,0.2
		c0.3-0.5,0.9-0.6,1.4-0.3c0.5,0.3,0.6,0.9,0.4,1.4c0,0,0,0,0,0.1C366.9,252.5,364.7,253.1,362.3,253.1z"></path><path class="st1" d="M376.6,245.9c-9.4-5.5-16.4,4.7-23-0.5c-17.8-14.1-26.5-4.2-22.1,1c7.8,9.2,24,21,32.4,20.6
		c12.1-0.7,18.6-6.2,38.7-20.4c1-2,26.3-5,56.8-7.3c9.5-44.7-16.4-58.3-15.5-58.6c-17.8,7.1-47.2,20.9-47.6,20.4
		C389.9,192.8,381.7,241.6,376.6,245.9z"></path><path class="st0" d="M363.4,267.9c-9.2,0-25.3-12.2-32.7-21c-1.9-2.2-1.8-5.5,0.3-7.5c3.4-3.5,11.5-4.2,23.2,5.1
		c2.8,2.2,5.6,1.3,9.1,0.1c3.8-1.2,8.1-2.6,13-0.1c1.8-2.5,4.4-11.3,6.6-19.2c4.6-15.9,7.6-25.7,11.3-26.4c0.8-0.1,1.7,0.1,2.3,0.8
		c1.8-0.6,8-3.4,14.6-6.4c10.1-4.5,22.7-10.1,32.2-13.9c0.5-0.2,1,0,1.3,0.5c0.1,0.1,0.3,0.3,0.5,0.4c15.4,12.5,20.6,32.9,15.1,58.8
		c-0.1,0.4-0.5,0.8-0.9,0.8c-34.4,2.6-54.2,5.4-56,6.9c-0.1,0.1-0.1,0.2-0.2,0.2l-5.4,3.9c-16,11.4-22.6,16.1-33.8,16.8L363.4,267.9
		z M337.5,239.1c-1.9-0.1-3.7,0.5-5.1,1.8c-1.4,1.3-1.4,3.4-0.2,4.9c8,9.5,23.9,20.7,31.6,20.2c10.6-0.6,16.7-4.9,32.8-16.4l5.3-3.7
		c0.5-0.7,2.6-1.9,18-3.8c9.9-1.2,23.6-2.6,38.7-3.7c5.1-24.8,0.1-44.2-14.5-56.1l-0.5-0.4c-9.4,3.8-21.6,9.2-31.5,13.6
		c-15.9,7.1-15.9,7.1-16.6,6.2c-0.2-0.3-0.5-0.6-0.8-0.5c-2.8,0.5-7,15.2-9.8,25c-3.3,11.6-5.5,18.9-7.7,20.6
		c-0.3,0.3-0.8,0.3-1.1,0.1c-4.5-2.6-8.4-1.4-12.1-0.1s-7.4,2.4-11-0.5C346.2,240.8,341,239.1,337.5,239.1L337.5,239.1z
		 M443.8,180.6L443.8,180.6z"></path><ellipse class="st0" transform="matrix(0.8 -0.6 0.6 0.8 -52.3572 264.9404)" cx="371.2" cy="211" rx="35.1" ry="35.6"></ellipse></g><g id="Clip"><polygon class="st3" points="218.8,128.2 216.1,129.4 133.6,166.7 119.9,172.9 99.7,142.1 198.6,97.5 	"></polygon><path class="st0" d="M143.8,170.2c-0.3,0-0.5-0.1-0.6-0.3l-22.6-34.3c-0.1-0.2-0.2-0.4-0.1-0.6c0.1-0.2,0.2-0.4,0.4-0.5l59.1-26.7
		c0.3-0.2,0.7,0,0.9,0.3l22.6,34.3c0.1,0.2,0.2,0.4,0.1,0.6c-0.1,0.2-0.2,0.4-0.4,0.5l-59.1,26.7C144,170.2,143.9,170.3,143.8,170.2
		z M122.3,135.5l21.7,33l57.7-26.1l-21.7-33L122.3,135.5z"></path></g></svg>