<svg transform="scale(1)" version="1.1" id="Layer_1" xmlns="http://www.w3.org/2000/svg" xmlns:xlink="http://www.w3.org/1999/xlink" x="0px" y="0px" viewBox="0 0 500 500" xml:space="preserve" class="show_show__wrapper__graphic__5Waiy "><title>React</title><style type="text/css">
	.st0{fill:#FFFFFF;}
	.st1{fill:#231F20;}
	.st2{fill:#FFD2B8;}
	.st3{fill:#D1D3D4;}
</style><g id="character_2"><path class="st0" d="M283.4,410.2c5.6,1.2,11.3,2.3,17,2.2c4.2-0.1,7.9-1.2,12.1-0.5c4.1,0.7,7.9,2.4,11.1,5
		c0.5,0.4,0.9,0.9,0.8,1.4c-0.1,0.3-0.4,0.6-0.7,0.7c-1.6,0.9-3.4-0.2-5-0.6c-1.6-0.4-3.3-0.7-5-0.7c-3.6-0.2-7.1,0.8-10.1,2.8
		c-0.4,0.3-0.8,0.7-0.9,1.1c-0.1,0.6,0.1,1.1,0.5,1.5c0.4,0.4,0.9,0.6,1.4,0.8l5.5,2.4c0.3,0.1,0.6,0.4,0.5,0.7
		c-0.1,0.2-0.2,0.3-0.4,0.3c-5.4,2-11.1-1.6-16.3-2.8c-5.6-1.3-11.4-2.1-17.1-2.5c2.1-3.5,2.8-7.7,1.8-11.8"></path><path class="st1" d="M306.8,428.7c-2.9,0-5.7-1-8.5-2c-1.5-0.6-3-1-4.5-1.4c-5.6-1.3-11.3-2.1-17-2.4c-0.3,0-0.5-0.2-0.6-0.4
		c-0.1-0.2-0.1-0.5,0-0.7c2-3.4,2.6-7.4,1.7-11.2c-0.1-0.4,0.2-0.8,0.6-0.9s0.8,0.2,0.9,0.6c0.9,3.8,0.5,7.8-1.3,11.3
		c5.4,0.4,10.8,1.2,16.1,2.4c1.6,0.4,3.2,0.9,4.7,1.5c3.5,1.2,7.1,2.5,10.5,1.6l-5-2.2c-0.6-0.2-1.2-0.6-1.6-1
		c-0.6-0.5-0.9-1.4-0.8-2.2c0.2-0.6,0.6-1.2,1.2-1.6c3.1-2.2,6.8-3.2,10.6-3c1.8,0,3.5,0.3,5.2,0.7c0.4,0.1,0.8,0.2,1.1,0.4
		c1.2,0.4,2.3,0.8,3.3,0.3c0.3-0.1,0.3-0.2,0.3-0.2s0-0.2-0.5-0.6c-3.1-2.5-6.8-4.1-10.8-4.8c-2.4-0.3-4.9-0.3-7.3,0.1
		c-1.5,0.2-3,0.4-4.6,0.4c-5.9,0.1-11.6-1.1-17.2-2.3c-0.4-0.1-0.6-0.6-0.5-0.9c0.1-0.3,0.4-0.5,0.8-0.5c5.5,1.1,11.2,2.3,16.9,2.2
		c1.5,0,3-0.2,4.4-0.4c6.8-1.2,13.9,0.6,19.2,5c0.9,0.7,1.2,1.5,1,2.2c-0.2,0.5-0.5,0.9-1,1.1c-1.6,0.9-3.1,0.3-4.5-0.2
		c-0.4-0.1-0.7-0.2-1-0.4c-1.6-0.4-3.2-0.6-4.9-0.6c-3.4-0.2-6.8,0.7-9.6,2.7c-0.3,0.2-0.6,0.5-0.6,0.7c0,0.3,0.1,0.6,0.3,0.8
		c0.3,0.3,0.7,0.5,1.2,0.7l5.5,2.4c1,0.4,1.1,1.1,0.9,1.6c-0.2,0.4-0.5,0.6-0.8,0.8C309.3,428.5,308,428.7,306.8,428.7z"></path><path class="st2" d="M136.5,363.2c2.5-29.5,21.8-31.2,28.5-31.7s42.2-5.1,55.1,10.7s9.6,92.3,9.6,92.3l-74.8,5.8
		C154.9,440.4,134,392.7,136.5,363.2z"></path><path class="st0" d="M247.8,425.1c1.7,3.5-0.9,6.6-7.4,6.6h-17.8c-2.7,0-9.3-7.9-6-12S246,421.6,247.8,425.1L247.8,425.1z"></path><path class="st1" d="M240.4,432.4h-17.8c-2.1,0-5.3-3.3-6.7-6.3c-1.3-2.8-1.3-5.2,0.1-6.9s5-2,11.1-1.3c7.8,0.9,20,4,21.4,6.9
		c0,0,0,0.1,0,0.1c0.8,1.4,0.7,3.1-0.1,4.5C247.2,431.3,244.3,432.4,240.4,432.4z M222.2,419.1c-3.8,0-4.8,0.8-5,1.1
		c-1.4,1.7-0.6,4,0.1,5.3c1.5,3.1,4.3,5.5,5.4,5.5h17.8c3.4,0,5.8-0.9,6.8-2.4c0.6-1,0.6-2.2,0-3.1v-0.1c-1-1.7-11-4.9-20.2-6
		C225.4,419.2,223.8,419.1,222.2,419.1L222.2,419.1z"></path><path class="st2" d="M220.1,342.2c0,0,9.6,18.4,15.2,27.9s17.9,23,17.9,23s43.4,15.5,43.7,16.3s-4.1,15.4-4.1,15.4
		s-45.6-3.3-53.1-6.8s-22.8-21-22.8-21L220.1,342.2L220.1,342.2z"></path><path class="st1" d="M171.5,281.8c1.2-1.2,2.8-1.8,4.5-1.8c1.7,0.1,3.3,1.6,3,3.2c2.6-4,7.6-6.1,12.4-6.2s9.5,1.4,14,3.1
		s8.9,3.8,13.6,4.9c-1.1,7.1-4.9,13.5-10.6,17.9c-2.7,1.9-5.5,3.5-8.5,4.9l-6.2,3.1c-6.4,3.2-15.1,5.9-22,2.5
		c-6.1-3-7.2-13.7-6.4-19.5C165.8,289.3,168,285,171.5,281.8L171.5,281.8z"></path><path class="st1" d="M178.8,315.7c-2.6,0-5.2-0.5-7.6-1.7c-6.2-3.1-7.7-13.7-6.8-20.3c0.6-4.8,2.9-9.3,6.5-12.5l0.1-0.1
		c1.3-1.3,3.1-2,4.9-2c1.2,0.1,2.3,0.7,3,1.6c0.2,0.2,0.3,0.4,0.4,0.6c3.1-3.3,7.5-5.2,12-5.2c5.1-0.2,10.1,1.5,14.3,3.2
		c1,0.4,2.1,0.8,3.1,1.3c3.3,1.5,6.8,2.7,10.3,3.6c0.4,0.1,0.6,0.5,0.6,0.8c-1.1,7.3-5,13.9-10.9,18.4c-2.7,1.9-5.6,3.6-8.6,5
		L197,310l-3.1,1.6C189.7,313.6,184.2,315.7,178.8,315.7z M171.9,282.5c-3.3,3-5.4,7.1-5.9,11.5c-0.8,6,0.5,16,6,18.7
		c6.8,3.4,15.4,0.5,21.4-2.5l3.1-1.6l3.1-1.5c2.9-1.4,5.8-3,8.4-4.9c5.4-4.1,9-10,10.2-16.7c-3.4-0.9-6.7-2.1-9.9-3.5
		c-1-0.4-2.1-0.9-3.1-1.2c-4.1-1.6-8.9-3.2-13.7-3.1c-5,0.2-9.5,2.4-11.8,5.9c-0.2,0.3-0.7,0.4-1,0.2c-0.3-0.2-0.4-0.5-0.3-0.8
		c0.1-0.5-0.1-1-0.4-1.4c-0.5-0.6-1.2-0.9-1.9-1C174.5,280.8,173,281.4,171.9,282.5C171.9,282.4,171.9,282.5,171.9,282.5
		L171.9,282.5z"></path><path class="st0" d="M200.1,329.2v15.9c0,0-3.7,8.8-14.2,6.1s-11.7-10.1-11.7-10.1l0.5-29.5c0,0,7.8-4,5.7-20.9
		c8.5,3.8,17.9,5.2,27.1,4.1c0,0,4.5,18.3,3.2,26.4S200.1,329.2,200.1,329.2L200.1,329.2z"></path><path class="st1" d="M189.7,352.5c-1.3,0-2.7-0.2-3.9-0.5c-10.8-2.7-12.2-10.4-12.3-10.8c0,0,0-0.1,0-0.1l0.5-29.5
		c0-0.3,0.2-0.5,0.4-0.7c0.1,0,7.3-4.1,5.3-20.1c0-0.3,0.1-0.5,0.3-0.7c0.2-0.2,0.5-0.2,0.8-0.1c8.4,3.7,17.6,5.1,26.7,4
		c0.4,0,0.7,0.2,0.8,0.6c0.2,0.8,4.5,18.6,3.2,26.7c-1.2,7.2-8.2,8.4-10.6,8.6v15.2c0,0.1,0,0.2-0.1,0.3
		C200.8,345.5,197.7,352.5,189.7,352.5z M175,341.1c0.1,0.7,1.7,7.1,11.1,9.5c9.1,2.3,12.7-4.5,13.2-5.6v-15.6c0,0,0-0.1,0-0.1
		c0-0.4,0.3-0.8,0.8-0.8l0,0c0.6,0,8.6-0.1,9.9-7.4c1.2-7-2.2-22.2-3-25.5c-8.7,0.9-17.5-0.4-25.7-3.7c1.4,14.2-4.3,19-5.9,20.1
		L175,341.1z"></path><path class="st0" d="M180.8,311.2c-0.3-1.4-1.1-2.7-2.3-3.7c-1.1-0.8-2.3-1.5-3.6-1.9c-0.7-0.3-1.4-0.4-2.2-0.4
		c-0.5,0.1-1,0.3-1.5,0.5c-1.1,0.5-2,1.5-2.6,2.6c-0.3,1-0.4,2-0.2,3c0.1,1.1,0.4,2.2,0.8,3.2c1.7,4.2,6.6,6.2,10.8,4.5
		c0,0,0.1,0,0.1-0.1"></path><path class="st1" d="M176.9,320.4c-3.7,0-7-2.2-8.3-5.6c-0.4-1.1-0.7-2.2-0.8-3.4c-0.2-1.1-0.1-2.3,0.2-3.3c0.6-1.3,1.6-2.4,2.9-3
		c0.5-0.3,1.2-0.5,1.8-0.6c0.9,0,1.7,0.1,2.5,0.5c1.4,0.4,2.7,1.1,3.9,2c1.3,1,2.2,2.5,2.5,4.1c0.1,0.4-0.2,0.8-0.6,0.9
		c-0.4,0.1-0.8-0.2-0.9-0.5c-0.3-1.3-1-2.4-2-3.3c-1-0.8-2.2-1.4-3.4-1.8c-0.6-0.3-1.2-0.4-1.9-0.4c-0.4,0.1-0.8,0.2-1.2,0.4
		c-1,0.5-1.7,1.3-2.2,2.2c-0.2,0.9-0.3,1.7-0.1,2.6c0.1,1,0.3,2,0.7,3c1.6,3.8,6,5.6,9.9,4c0,0,0,0,0.1,0c0.4-0.2,0.8,0,1,0.4
		c0,0,0,0,0,0c0.2,0.4,0,0.8-0.4,1c0,0,0,0,0,0C179.4,320.1,178.1,320.4,176.9,320.4z"></path><path class="st0" d="M195.5,304.9c0,0,5.7,8,4.4,9.5S195,315,195,315"></path><path class="st1" d="M197.2,316c-0.8,0-1.6-0.1-2.4-0.3c-0.4-0.1-0.7-0.5-0.6-0.9s0.5-0.7,0.9-0.6c0,0,0,0,0.1,0
		c1.2,0.3,3.5,0.5,4.2-0.4c0.3-0.7-1.8-4.8-4.4-8.6c-0.3-0.3-0.2-0.8,0.1-1.1c0.3-0.3,0.8-0.2,1.1,0.1c0,0,0.1,0.1,0.1,0.1
		c2.2,3.2,5.8,8.8,4.4,10.4C199.6,315.7,198.4,316.1,197.2,316z"></path><ellipse class="st1" transform="matrix(6.157113e-02 -0.9981 0.9981 6.157113e-02 -126.6557 474.2627)" cx="188.9" cy="304.5" rx="1.9" ry="1.4"></ellipse><ellipse class="st1" transform="matrix(0.972 -0.2351 0.2351 0.972 -65.8874 55.9635)" cx="201.7" cy="304.3" rx="1.4" ry="1.9"></ellipse><path class="st1" d="M200.1,329.2c0,0-9.9,2.3-15.8-1c0,0,6.5,13.4,15.8,12V329.2z"></path><path class="st1" d="M198.7,341c-8.9,0-14.8-12-15.1-12.5c-0.2-0.4,0-0.8,0.3-1c0.2-0.1,0.5-0.1,0.7,0c5.5,3.1,15.1,1,15.2,1
		c0.2-0.1,0.5,0,0.6,0.1c0.2,0.1,0.3,0.4,0.3,0.6v10.9c0,0.4-0.3,0.7-0.6,0.7C199.7,341,199.2,341,198.7,341z M186.1,329.8
		c2.1,3.4,7,10.2,13.3,9.7v-9.3C197.1,330.6,191,331.4,186.1,329.8z"></path><path class="st0" d="M185.8,409c6.5,0.4,13.1,0,19.5-1c5-0.9,9.4-1.9,14.6-1.7c6.5,0.3,12.8,1.8,18.8,4.3c0.2,0.1,0.5,0.2,0.6,0.4
		c0.6,0.8-0.8,1.6-1.8,1.6c-2.6,0-5.2-0.3-7.7-1c6.2,2.3,12,5.4,17.4,9.2c0.6,0.4,1.3,1.1,1,1.8s-1.5,0.6-2.4,0.2
		c-4.7-2.1-9.4-4.3-14-6.4c3.6,1.5,7,3.5,10,6.1c0.4,0.4,0.9,0.9,0.8,1.4c-0.2,1-1.6,0.8-2.5,0.3c-4.3-2.1-8.4-4.6-12.2-7.4l8.7,6.6
		c0.1,0.7-0.6,1.3-1.4,1.3c-0.7,0-1.4-0.3-2-0.7l-9.7-5.6l6,4.2c1,0.7,2,1.7,1.6,2.8c-0.6,1.2-2.4,0.9-3.6,0.3
		c-5-2.2-10.2-3.8-15.5-4.8c-2-0.4-3.8-1.2-5.8-1.2c-2.9,0.1-6,1.3-8.8,1.9c-4.4,1-8.7,2-13.1,3"></path><path class="st1" d="M229.6,427.2c-0.8,0-1.7-0.2-2.4-0.6c-4.9-2.1-10.1-3.7-15.4-4.7c-0.7-0.1-1.3-0.3-2-0.5
		c-1.2-0.4-2.4-0.6-3.6-0.6c-2,0.2-4,0.6-5.9,1.2c-1,0.3-1.9,0.5-2.7,0.7c-4.4,1-8.7,2-13.1,3c-0.4,0.1-0.8-0.1-0.9-0.5c0,0,0,0,0,0
		c-0.1-0.4,0.2-0.8,0.6-0.9c4.4-1,8.7-2,13.1-3c0.9-0.2,1.7-0.4,2.7-0.7c2-0.7,4.1-1.1,6.3-1.2c1.4,0,2.8,0.2,4.1,0.7
		c0.6,0.2,1.2,0.4,1.9,0.5c5.4,1,10.6,2.6,15.7,4.8c0.7,0.4,1.5,0.5,2.3,0.4c0.1,0,0.3-0.2,0.3-0.3c0.3-0.7-0.9-1.6-1.3-1.9l-6-4.2
		c-0.3-0.2-0.4-0.7-0.2-1c0.2-0.3,0.6-0.4,1-0.2l9.7,5.6c0.5,0.4,1,0.6,1.6,0.6c0.2,0,0.4-0.1,0.6-0.3l0,0l-8.3-6.4
		c-0.3-0.3-0.4-0.7-0.1-1c0.2-0.3,0.7-0.4,1-0.1c3.8,2.8,7.9,5.3,12.1,7.4c0.4,0.3,0.9,0.3,1.4,0.2c0,0,0-0.2-0.5-0.7
		c-2-1.8-4.3-3.3-6.7-4.5l-3.1-1.4c-0.4-0.2-0.6-0.6-0.4-1c0.2-0.4,0.6-0.6,1-0.4l0,0c1.1,0.4,2.1,0.9,3.2,1.5l1.8,0.8l9.1,4.2
		c0.4,0.2,0.8,0.3,1.3,0.2c0.1-0.2-0.1-0.5-0.7-1c-5.3-3.8-11.1-6.9-17.2-9.1c-0.4-0.2-0.6-0.6-0.4-1c0.1-0.3,0.5-0.5,0.9-0.4
		c2.4,0.7,4.9,1,7.4,0.9c0.5,0,0.9-0.2,1.2-0.5c0,0-0.2,0-0.3-0.1c-5.9-2.5-12.2-3.9-18.6-4.2c-4.3-0.1-8.5,0.4-12.7,1.3l-1.7,0.3
		c-6.6,1.2-13.7,1.2-19.7,1c-0.4,0-0.7-0.4-0.7-0.8c0-0.4,0.3-0.7,0.7-0.7c0,0,0,0,0,0c5.9,0.2,12.9,0.3,19.4-0.9l1.7-0.3
		c4.3-1,8.6-1.5,13-1.4c6.6,0.3,13.1,1.8,19.2,4.4c0.4,0.1,0.7,0.3,1,0.7c0.3,0.4,0.4,1,0.1,1.5c-0.6,0.8-1.5,1.3-2.5,1.4
		c-0.6,0-1.1,0-1.7,0c4.1,1.9,8.1,4.2,11.8,6.9c1.6,1.2,1.5,2.2,1.2,2.7c-0.2,0.4-0.5,0.7-0.9,0.9c-0.8,0.2-1.7,0.1-2.4-0.3l-3-1.4
		c0.6,0.5,0.8,1.2,0.7,1.9c-0.1,0.5-0.4,0.9-0.9,1.1c-0.9,0.3-1.9,0.2-2.7-0.2c-0.8-0.4-1.6-0.8-2.4-1.3c0,0.4-0.2,0.8-0.4,1.1
		c-0.4,0.5-1,0.8-1.6,0.8c-0.9,0-1.7-0.3-2.4-0.8l-1-0.6c0.2,0.5,0.2,1.1,0,1.7c-0.2,0.5-0.6,0.9-1.2,1.1
		C230.4,427.2,230,427.2,229.6,427.2z"></path><path class="st0" d="M190.7,320c0,0,6.1,4.6,12.5-0.2"></path><path class="st1" d="M197,322.7c-2.4,0-4.7-0.8-6.7-2.1c-0.3-0.3-0.4-0.7-0.1-1.1c0.3-0.3,0.7-0.4,1.1-0.1
		c3.5,2.5,8.2,2.4,11.6-0.2c0.3-0.3,0.8-0.2,1.1,0.1c0.3,0.3,0.2,0.8-0.1,1.1c0,0,0,0-0.1,0C201.8,321.9,199.4,322.7,197,322.7z"></path><path class="st2" d="M146.1,338.8c-8.1,1.4-40.9,77.4-29.7,86c17.5,13.5,78.6-0.1,78.6-0.1l-5-23.5c0,0-39.2,1.1-39.8-7
		s22.8-45.3,19.8-50.9S146.1,338.7,146.1,338.8L146.1,338.8z"></path><path class="st1" d="M144.2,431.5c-13.5,0-22.9-2-28.2-6.1c-1.2-0.9-1.9-2.6-2.2-5.1c-2-15.5,12.4-57.9,29.7-80
		c7.1-9.1,22.6-9.6,28.4-9.8c1,0,1.8-0.1,2.1-0.1c0.4-0.1,0.8,0.1,0.9,0.5c0.1,0.4-0.1,0.8-0.5,0.9c0,0-0.1,0-0.1,0
		c-0.8,0.1-1.5,0.1-2.3,0.1c-5.6,0.2-20.6,0.7-27.3,9.2c-7.9,10.1-15.9,25.5-21.9,42.3c-5.5,15.5-8.4,29.5-7.5,36.6
		c0.3,2,0.8,3.5,1.7,4.1c16,12.4,70.3,1.3,77.2-0.1l-4.7-22.2c-2.3,0-10.8,0.1-19.1-0.5c-13.7-1-20.5-3.4-20.8-7.2s4.7-14,9.9-24.7
		l0.1-0.1c0.2-0.4,0.6-0.5,1-0.3c0,0,0,0,0,0c0.4,0.2,0.5,0.6,0.4,1l-0.1,0.1c-4.9,10-10,20.4-9.7,24c0.4,5.4,24.1,6.7,39,6.3
		c0.4,0,0.7,0.2,0.8,0.6l5,23.5c0.1,0.4-0.2,0.8-0.6,0.9c0,0,0,0,0,0c-10.8,2.3-21.8,4-32.8,5.2
		C155.6,431.2,149.6,431.5,144.2,431.5z"></path><path class="st1" d="M214.2,406.8c-0.4,0-0.7-0.3-0.8-0.7l-3.2-29.1c0-0.4,0.2-0.8,0.7-0.8c0,0,0,0,0,0c0.4,0,0.8,0.3,0.8,0.7
		l3.2,29.1C215,406.3,214.8,406.7,214.2,406.8L214.2,406.8z"></path><rect class="st0" x="350.6" y="269.5" width="114.2" height="149.9"></rect><path class="st3" d="M464.8,420.2H350.6c-0.4,0-0.8-0.3-0.8-0.8v-150c0-0.4,0.3-0.8,0.8-0.8h114.2c0.4,0,0.8,0.3,0.8,0.8v150
		C465.5,419.9,465.2,420.2,464.8,420.2z M351.3,418.7h112.7V270.2H351.3V418.7z"></path><path class="st3" d="M407.7,419.8c-0.4,0-0.7-0.3-0.8-0.8V269.5c0-0.4,0.3-0.8,0.8-0.8s0.8,0.3,0.8,0.8v149.6
		C408.5,419.5,408.1,419.8,407.7,419.8z"></path><path class="st3" d="M464.8,345H350.6c-0.4,0-0.8-0.3-0.8-0.8s0.3-0.8,0.8-0.8h114.2c0.4,0,0.8,0.3,0.8,0.8S465.2,345,464.8,345
		L464.8,345z"></path><path class="st0" d="M285.8,431h63.4c0,0,2.2-3.6-1.1-6.1h-61L285.8,431z"></path><path class="st1" d="M349.2,431.7h-63.4c-0.2,0-0.4-0.1-0.6-0.3c-0.1-0.2-0.2-0.4-0.1-0.6l1.2-6.1c0.1-0.4,0.4-0.6,0.7-0.6h61
		c0.2,0,0.3,0.1,0.5,0.2c2.2,1.7,2.8,4.7,1.3,7.1C349.6,431.6,349.4,431.7,349.2,431.7z M286.7,430.2h62c0.8-1.6,0.4-3.5-0.9-4.6
		h-60.1L286.7,430.2z"></path><path class="st0" d="M263.4,428.8c0,0,22-5.4,23.7-3.7s1.2,5.6-1.4,5.9s-3.1-3.1-3.1-3.1l-19.2,3.8V428.8L263.4,428.8z"></path><path class="st1" d="M263.4,432.4c-0.2,0-0.3-0.1-0.5-0.2c-0.2-0.1-0.3-0.4-0.3-0.6v-2.9c0-0.4,0.3-0.7,0.7-0.8
		c6.8-1.7,22.5-5.3,24.3-3.5c1.2,1.3,1.5,3.2,0.9,4.9c-0.4,1.3-1.5,2.2-2.8,2.3c-2.1,0.2-3.3-1.6-3.7-3l-18.5,3.7L263.4,432.4z
		 M264.2,429.4v1.4l18.3-3.6c0.2,0,0.4,0,0.6,0.1c0.2,0.1,0.3,0.3,0.3,0.5c0,0.1,0.5,2.6,2.3,2.5c0.7-0.1,1.3-0.6,1.5-1.3
		c0.4-1.1,0.2-2.4-0.6-3.3C285.4,424.9,274.3,426.9,264.2,429.4L264.2,429.4z"></path><rect class="st0" x="87.9" y="431.7" width="319.9" height="7.3"></rect><path class="st1" d="M407.8,439.7H87.9c-0.4,0-0.8-0.3-0.8-0.8v-7.3c0-0.4,0.3-0.8,0.8-0.8h319.9c0.4,0,0.7,0.3,0.8,0.8v7.3
		C408.5,439.4,408.2,439.7,407.8,439.7z M88.6,438.2H407v-5.8H88.6L88.6,438.2z"></path><ellipse class="st0" transform="matrix(0.9985 -5.530038e-02 5.530038e-02 0.9985 -16.6244 4.6788)" cx="76.2" cy="302.7" rx="31" ry="31"></ellipse><path class="st1" d="M76.2,334.5c-17.6,0-31.8-14.2-31.8-31.8c0-17.6,14.2-31.8,31.8-31.8s31.8,14.2,31.8,31.8l0,0
		C108,320.3,93.8,334.5,76.2,334.5z M76.2,272.4c-16.7,0-30.3,13.6-30.3,30.3c0,16.7,13.6,30.3,30.3,30.3s30.3-13.6,30.3-30.3l0,0
		C106.5,286,93,272.5,76.2,272.4z"></path><rect class="st0" x="272.9" y="300.6" width="147.3" height="107.8"></rect><path class="st1" d="M420.1,409.2H272.9c-0.4,0-0.7-0.3-0.8-0.8V300.6c0-0.4,0.3-0.7,0.8-0.8h147.3c0.4,0,0.8,0.3,0.8,0.8v107.8
		C420.9,408.8,420.6,409.2,420.1,409.2z M273.6,407.7h145.8V301.3H273.6L273.6,407.7z"></path><polygon class="st1" points="331.8,363.2 331.8,408.4 355.3,408.4 	"></polygon><path class="st1" d="M355.3,409.2h-23.6c-0.4,0-0.7-0.3-0.8-0.8v-45.2c0-0.3,0.2-0.7,0.6-0.7c0.3-0.1,0.7,0.1,0.8,0.4l23.6,45.2
		c0.1,0.2,0.1,0.5,0,0.7C355.9,409,355.6,409.2,355.3,409.2z M332.5,407.7h21.6l-21.6-41.4L332.5,407.7z"></path><path class="st0" d="M362.2,363.2h-30.4l16.7,64.8h-30.6c-1,0.1-1.8,0.9-1.7,1.9c0.1,0.9,0.8,1.6,1.7,1.7h58.6
		c1.3,0,2.4-1.1,2.4-2.4v0V428L362.2,363.2L362.2,363.2z"></path><path class="st1" d="M376.5,432.4h-58.6c-1.4-0.1-2.5-1.3-2.4-2.7c0.1-1.3,1.1-2.3,2.4-2.4h29.6L331,363.4
		c-0.1-0.4,0.1-0.8,0.5-0.9c0.1,0,0.1,0,0.2,0h30.5c0.3,0,0.6,0.2,0.7,0.6l16.7,64.8c0,0.1,0,0.1,0,0.2v1.2
		C379.6,431,378.2,432.4,376.5,432.4z M317.9,428.8c-0.6,0.1-1,0.6-1,1.2c0,0.5,0.5,0.9,1,1h58.6c0.9,0,1.7-0.7,1.7-1.7v0v-1.1
		L361.6,364h-28.9l16.5,63.9c0.1,0.2,0,0.5-0.1,0.6c-0.1,0.2-0.4,0.3-0.6,0.3L317.9,428.8z"></path><path class="st0" d="M317.9,432.5h58.6c1.8,0,3.2-1.4,3.2-3.2v-1.2c0-0.1,0-0.1,0-0.2L363,363c-0.1-0.3-0.4-0.6-0.8-0.6h-30.5
		c-0.2,0-0.5,0.1-0.6,0.3c-0.2,0.2-0.2,0.4-0.1,0.7l16.5,63.8h-29.6c-1.4,0-2.6,1.2-2.6,2.6S316.4,432.5,317.9,432.5L317.9,432.5
		L317.9,432.5z"></path><path class="st1" d="M317.9,433.2c-1.9,0-3.4-1.5-3.4-3.4s1.5-3.4,3.4-3.4h28.6l-16.2-62.9c-0.1-0.5,0-1,0.3-1.3
		c0.3-0.4,0.7-0.6,1.2-0.6h30.5c0.7,0,1.3,0.5,1.5,1.1l16.7,64.8c0,0.1,0,0.3,0,0.4v1.2c0,2.2-1.8,4-4,4L317.9,433.2L317.9,433.2z
		 M317.9,428c-1,0-1.8,0.9-1.8,1.9c0,0.9,0.7,1.7,1.7,1.8h58.7c1.4,0,2.5-1.1,2.5-2.5v-1.2l-16.7-64.8h-30.5l16.4,63.9
		c0.1,0.4-0.1,0.8-0.5,0.9c-0.1,0-0.1,0-0.2,0L317.9,428z"></path><path class="st0" d="M283.2,401.9L283.2,401.9c0.6,0,1-0.4,1-1v-4.3c0-0.6-0.4-1-1-1l0,0c-0.6,0-1,0.4-1,1v4.3
		C282.2,401.5,282.6,401.9,283.2,401.9z"></path><path class="st1" d="M283.2,402.7c-1,0-1.8-0.8-1.8-1.8v-4.3c0.1-1,0.9-1.7,1.9-1.6c0.9,0.1,1.6,0.8,1.6,1.6v4.3
		C284.9,401.9,284.2,402.7,283.2,402.7C283.2,402.7,283.2,402.7,283.2,402.7z M283.2,396.4c-0.1,0-0.2,0.1-0.2,0.2v4.3
		c0,0.3,0.5,0.3,0.5,0v-4.3C283.4,396.5,283.3,396.4,283.2,396.4z"></path><path class="st0" d="M288.4,401.9L288.4,401.9c0.6,0,1-0.4,1-1v-4.3c0-0.6-0.4-1-1-1l0,0c-0.6,0-1,0.4-1,1v4.3
		C287.4,401.5,287.9,401.9,288.4,401.9z"></path><path class="st1" d="M288.4,402.7c-1,0-1.8-0.8-1.8-1.8v-4.3c0-1,0.8-1.8,1.8-1.8s1.8,0.8,1.8,1.8v4.3
		C290.2,401.9,289.4,402.7,288.4,402.7z M288.4,396.4c-0.1,0-0.2,0.1-0.2,0.2v4.3c0,0.3,0.5,0.3,0.5,0v-4.3
		C288.7,396.5,288.6,396.4,288.4,396.4z"></path><path class="st0" d="M293.6,401.9L293.6,401.9c0.6,0,1-0.4,1-1v-4.3c0-0.6-0.4-1-1-1l0,0c-0.6,0-1,0.4-1,1v4.3
		C292.6,401.5,293.1,401.9,293.6,401.9z"></path><path class="st1" d="M293.6,402.7c-1,0-1.8-0.8-1.8-1.8v-4.3c0-1,0.8-1.8,1.8-1.8s1.8,0.8,1.8,1.8v4.3
		C295.4,401.9,294.6,402.7,293.6,402.7z M293.6,396.4c-0.1,0-0.2,0.1-0.2,0.2v4.3c0,0.3,0.5,0.3,0.5,0v-4.3
		C293.9,396.5,293.8,396.4,293.6,396.4z"></path><path class="st0" d="M298.9,401.9L298.9,401.9c0.6,0,1-0.4,1-1v-4.3c0-0.6-0.4-1-1-1l0,0c-0.6,0-1,0.4-1,1v4.3
		C297.9,401.5,298.3,401.9,298.9,401.9z"></path><path class="st1" d="M298.9,402.7c-1,0-1.8-0.8-1.8-1.8v-4.3c0-1,0.8-1.8,1.8-1.8s1.8,0.8,1.8,1.8v4.3
		C300.6,401.9,299.9,402.7,298.9,402.7z M298.9,396.4c-0.1,0-0.2,0.1-0.2,0.2v4.3c0,0.3,0.5,0.3,0.5,0v-4.3
		C299.1,396.5,299,396.4,298.9,396.4z"></path><path class="st0" d="M304.1,401.9L304.1,401.9c0.6,0,1-0.4,1-1v-4.3c0-0.6-0.4-1-1-1l0,0c-0.6,0-1,0.4-1,1v4.3
		C303.1,401.5,303.6,401.9,304.1,401.9z"></path><path class="st1" d="M304.1,402.7c-1,0-1.8-0.8-1.8-1.8v-4.3c0-1,0.8-1.8,1.8-1.8s1.8,0.8,1.8,1.8v4.3
		C305.9,401.9,305.1,402.7,304.1,402.7z M304.1,396.4c-0.1,0-0.2,0.1-0.2,0.2v4.3c0,0.3,0.5,0.3,0.5,0v-4.3
		C304.4,396.5,304.3,396.4,304.1,396.4z"></path><path class="st0" d="M309.3,401.9L309.3,401.9c0.6,0,1-0.4,1-1v-4.3c0-0.6-0.4-1-1-1l0,0c-0.6,0-1,0.4-1,1v4.3
		C308.3,401.5,308.8,401.9,309.3,401.9z"></path><path class="st1" d="M309.3,402.7c-1,0-1.8-0.8-1.8-1.8v-4.3c0.1-1,0.9-1.7,1.9-1.6c0.9,0.1,1.6,0.8,1.6,1.6v4.3
		C311.1,401.9,310.3,402.7,309.3,402.7C309.3,402.7,309.3,402.7,309.3,402.7z M309.3,396.4c-0.1,0-0.2,0.1-0.2,0.2v4.3
		c0,0.3,0.5,0.3,0.5,0v-4.3C309.6,396.5,309.5,396.4,309.3,396.4z"></path><polyline class="st0" points="66.1,293.5 76.6,303.5 88.9,282.7 	"></polyline><path class="st1" d="M76.6,304.3c-0.2,0-0.4-0.1-0.5-0.2L65.6,294c-0.2-0.3-0.2-0.8,0.2-1c0.2-0.2,0.6-0.2,0.8,0l9.8,9.4l11.9-20
		c0.2-0.4,0.7-0.5,1-0.3c0.4,0.2,0.5,0.7,0.3,1l-12.3,20.8C77.1,304.1,76.9,304.2,76.6,304.3L76.6,304.3z"></path></g><g id="character_1"><rect class="st1" x="72.7" y="67.4" width="131" height="135.6"></rect><path class="st3" d="M203.7,203.7h-131c-0.4,0-0.7-0.3-0.7-0.7V67.4c0-0.4,0.3-0.7,0.8-0.8h131c0.4,0,0.8,0.3,0.8,0.8V203
		C204.5,203.4,204.1,203.7,203.7,203.7C203.7,203.7,203.7,203.7,203.7,203.7z M73.5,202.2h129.5V68.1H73.5L73.5,202.2z"></path><path class="st3" d="M82.4,167.9c-0.3,0-0.5-0.2-0.7-0.4c-1.6-3-5.3-4.2-8.3-2.6c-0.1,0-0.1,0.1-0.2,0.1c-0.4,0.2-0.8,0-1-0.3
		c-0.2-0.4,0-0.8,0.3-1c3.7-1.8,6.4-0.8,8.2,0.5c-2.5-9.6,0.1-16.9,7.9-21.7c7.1-4.4,15.7-3.4,19.8-2.5c-3.6-5.2-2.4-12.5-2.3-12.9
		c0.1-0.4,0.4-0.6,0.8-0.6c3.4,0.1,6,1.2,7.5,3.3c1.2,1.8,1.8,4,1.6,6.2c3.9-6.3,13.2-17.3,29.4-13c12.5,3.4,16.7,13.9,17.9,18.5
		c2.1-3.7,7.7-11.5,18.2-12.9c15.4-2,22,11.6,22.1,11.7c0.2,0.4,0,0.8-0.4,1s-0.8,0-1-0.4c-0.2-0.5-6.2-12.8-20.5-10.9
		c-12.9,1.7-18,13.8-18,13.9c-0.2,0.4-0.6,0.6-1,0.4c-0.3-0.1-0.4-0.3-0.5-0.6c0-0.2-2.3-15.3-17.3-19.3
		c-20.7-5.6-29.3,15.2-29.7,16c-0.1,0.4-0.6,0.6-0.9,0.4c-0.4-0.1-0.6-0.5-0.5-0.9c0-0.1,1.8-5.9-0.7-9.4c-1.1-1.6-3-2.5-5.6-2.7
		c-0.2,2.1-0.6,9,3.6,12.7c0.3,0.2,0.3,0.6,0.2,0.9c-0.2,0.3-0.5,0.4-0.9,0.3c-0.1,0-12-3.8-21,1.8c-11.6,7.1-7.8,18.4-6.6,22.1
		c0.1,0.4,0.3,0.8,0.3,1.2c0,0.4-0.2,0.7-0.5,0.8C82.5,167.8,82.5,167.9,82.4,167.9z"></path><path class="st3" d="M92.9,166.9c-0.1,0-0.2,0-0.3-0.1c-3.6-1.9-5.5-5.8-4.8-9.8c0-0.3,0.3-0.6,0.6-0.6c3.2-0.7,6.3,1,8.1,2.1
		c0.2-5.7,6.4-7.9,6.5-7.9c0.2-0.1,0.5,0,0.7,0.1c3.8,2.7,1.7,11.5,1.6,11.9c-0.1,0.4-0.5,0.7-0.9,0.6c-0.4-0.1-0.7-0.5-0.6-0.9
		c0.5-2.2,1.4-8.1-0.7-10.1c-1.4,0.6-5.8,2.9-5,7.8c0,0.3-0.1,0.6-0.4,0.8c-0.3,0.2-0.6,0.1-0.9-0.1c0,0-3.9-3.2-7.6-2.8
		c-0.4,3.1,1.2,6.2,4,7.7c0.4,0.2,0.5,0.6,0.4,1C93.4,166.8,93.1,166.9,92.9,166.9L92.9,166.9z"></path><path class="st3" d="M125,146.4c-0.3,0-0.5-0.1-0.7-0.4c-0.1-0.2-2.7-4.6-1-8.6c1-2.3,3.2-3.9,6.5-4.8c0.4-0.1,0.8,0.1,0.9,0.5
		c0.1,0.2,1.9,6-0.9,10.7c-0.2,0.3-0.6,0.5-1,0.3c-0.3-0.2-0.5-0.6-0.3-1c1.9-3.3,1.3-7.2,0.9-8.8c-2.5,0.8-4.1,2-4.8,3.7
		c-1.4,3.2,0.9,7.2,0.9,7.3c0.2,0.4,0.1,0.8-0.3,1C125.3,146.3,125.1,146.4,125,146.4z"></path><path class="st3" d="M138.2,203c-0.4,0-0.8-0.3-0.8-0.8V68.1c0-0.4,0.3-0.8,0.8-0.8s0.8,0.3,0.8,0.8v134.1
		C139,202.6,138.6,203,138.2,203C138.2,203,138.2,203,138.2,203z"></path><path class="st3" d="M203,135.9H73.4c-0.4,0-0.8-0.3-0.8-0.8s0.3-0.8,0.8-0.8H203c0.4,0,0.8,0.3,0.8,0.8S203.4,135.9,203,135.9z"></path><path class="st0" d="M309.8,140.1h-1.2c-16,0.1-32.2,3.1-38.5,4.4c-9.2,1.9-13.9,20.1-13.7,52.9c0.2,16.5,1.3,33,3.1,49.4l85.4-0.9
		c0.6-6.9,7.6-85.3-3.9-97.4C335.9,142.9,325.4,140.1,309.8,140.1L309.8,140.1z M345.5,246.3L345.5,246.3z"></path><path class="st1" d="M259.5,247.4c-0.4,0-0.7-0.3-0.7-0.7c-1.9-16.4-2.9-32.9-3.1-49.4c-0.1-23.1,2.2-51.2,14.3-53.6
		c6.2-1.3,22.5-4.2,38.6-4.4h1.2c15.8,0,26.4,2.9,31.8,8.5c11.7,12.2,5,88,4.1,97.8c0.3,0.1,0.5,0.4,0.5,0.7c0,0.4-0.3,0.8-0.7,0.8
		c-0.3,0-0.6-0.2-0.7-0.5L259.5,247.4L259.5,247.4z M308.5,140.9c-16,0.1-32.1,3.1-38.3,4.3c-8.7,1.8-13.3,20.3-13.1,52.2
		c0.2,16.2,1.2,32.5,3.1,48.6l84.1-0.9c0.8-8.6,7.3-84.5-3.8-96.2c-5-5.3-15.3-8-30.6-8L308.5,140.9L308.5,140.9z"></path><path class="st0" d="M234.7,173.8l-5,47.8c0,0-37.2,5.7-43.5,5.1s-18.3,2.2-20.2,3.8s-10.3,11.2-8.6,11.3s9.3-7,10-7
		s7.3,1.7,7.3,1.7s-10.6,5.9-7.5,6.2s13.2-4.6,14.4-4.8s52.6,8.1,64.2,5.4c11.6-2.8,9.9-21.3,9.8-27.4s-1.6-46.3-1.6-46.3
		L234.7,173.8L234.7,173.8z"></path><path class="st1" d="M238.8,244.7c-13.3,0-37-3.3-49.6-5c-3.8-0.5-7.1-1-7.4-0.9c-0.1,0-1.3,0.5-2.4,1c-4.9,2.1-9.8,4-12.1,3.8
		c-0.9-0.1-1.2-0.6-1.2-0.9c-0.1-0.5-0.4-1.6,6.8-5.8c-2.4-0.6-4.6-1.1-5.2-1.2c-1,0.7-2,1.5-3,2.3c-3.5,2.8-5.9,4.6-7.1,4.6l0,0
		c-0.4,0-0.8-0.2-0.9-0.6c-0.8-2.1,8.9-11.9,9-12c2-1.7,14.3-4.5,20.7-3.9c5.7,0.5,38-4.3,42.8-5.1l4.9-47.2c0-0.4,0.3-0.6,0.7-0.7
		l19.3-4.2c0.4-0.1,0.8,0.2,0.9,0.6c0,0,0,0.1,0,0.1c0,0.4,1.5,40.2,1.6,46.3c0,0.6,0,1.3,0,2.1c0.2,7.6,0.6,23.5-10.4,26.1
		C243.6,244.5,241.2,244.7,238.8,244.7z M181.7,237.2c0.5,0,2,0.2,7.7,1c14.2,2,47.5,6.5,56.3,4.4c9.9-2.4,9.5-17.4,9.3-24.6
		c0-0.8,0-1.5,0-2.1c0-5.6-1.3-39.4-1.5-45.4l-18.1,3.9l-4.9,47.2c0,0.3-0.3,0.6-0.6,0.7c-1.5,0.2-37.4,5.7-43.7,5.1
		s-18.1,2.2-19.6,3.6c-2.9,2.9-5.6,6.1-8,9.5c1.8-1.2,3.5-2.5,5.1-3.9c2.8-2.2,3.4-2.7,3.9-2.6c0.8,0,6.4,1.4,7.4,1.7
		c0.3,0.1,0.5,0.3,0.6,0.6c0,0.3-0.1,0.6-0.4,0.8c-2.6,1.4-5,3-7.3,4.8c2.4-0.1,7.9-2.4,10.9-3.7c0.9-0.4,1.8-0.8,2.8-1.1
		L181.7,237.2z"></path><path class="st2" d="M232.5,199.1c1.6-10.1,4.6-28.9,15.5-34.5c24.5-12.5,53.8-6.4,60.9-3.5c4.1,14.8,13.8,89.9,13.8,89.9l-76.2-3
		c0,0-2.3-24.9,0.6-49L232.5,199.1L232.5,199.1z"></path><path class="st0" d="M270.8,168.6c0,0-4.9,37.7,6.8,39s18.4-48.3,18.4-48.3l-25.7,5.3"></path><path class="st1" d="M278,208.4h-0.6c-1.7-0.2-3.3-1.2-4.3-2.6c-6.7-8.6-3.2-36.1-3.1-37.3c0.1-0.4,0.4-0.7,0.8-0.6
		s0.7,0.4,0.6,0.8l0,0c0,0.3-3.5,28.1,2.8,36.2c0.8,1.1,2,1.8,3.3,2h0.4c8.5,0,15-32.6,17-46.6l-24.6,5.1c-0.4,0.1-0.8-0.2-0.9-0.6
		c0,0,0,0,0,0c-0.1-0.4,0.2-0.8,0.6-0.9c0,0,0,0,0,0l25.7-5.3c0.2-0.1,0.5,0,0.7,0.2c0.2,0.2,0.3,0.4,0.2,0.6
		c0,0.1-1.8,12.6-4.9,24.8C287.7,200.2,283.1,208.4,278,208.4z"></path><path class="st0" d="M311.9,194.4l14,32.2c0,0-23.3,4.5-36.9,6.4c0,0-15.6-5.6-20.9-5.5s-12.9,5.5-14.7,7.3
		c-5.9,6.1-5.4,9.5-5.4,11.3c0.2,3.7,27-0.9,30.5-0.5s66.2,6,71.4,1.3s-12-58.3-12-58.3"></path><path class="st1" d="M333.1,249.6c-21.3,0-54.1-3.1-54.6-3.2c-2.8,0.1-5.6,0.3-8.5,0.7c-11.3,1.2-20.1,2-22.2,0.2
		c-0.3-0.3-0.6-0.7-0.6-1.1v-0.2c-0.1-1.9-0.3-5.5,5.6-11.6c2-2.1,9.8-7.4,15.2-7.6c5.1-0.2,19.2,4.8,21,5.4
		c11.9-1.7,31.4-5.4,35.8-6.2l-13.6-31.4c-0.2-0.4-0.1-0.8,0.3-1c0.4-0.2,0.8-0.1,1,0.3c0,0,0,0.1,0.1,0.1l13.9,32.2
		c0.2,0.4,0,0.8-0.4,1c0,0-0.1,0-0.1,0c-0.2,0.1-23.5,4.5-37,6.4c-0.1,0-0.2,0-0.4,0c-0.1,0-15.5-5.6-20.6-5.4s-12.5,5.4-14.2,7.1
		c-5.4,5.6-5.2,8.8-5.1,10.5v0.2c0.8,1.7,15,0.1,21.1-0.5c2.9-0.4,5.8-0.7,8.8-0.7c7.7,0.8,66.1,5.7,70.9,1.5
		c3.6-3.2-5.6-37-12.3-57.5c-0.1-0.4,0.1-0.8,0.5-0.9c0.4-0.1,0.8,0.1,0.9,0.5c1.8,5.5,17.3,54.2,11.8,59.1
		C348.8,249.1,341.9,249.6,333.1,249.6z"></path><path class="st2" d="M307.2,160.2c8.1,2.4,15.7,6.3,22.2,11.7c10.8,9.2,15.3,32.4,15.3,32.4l-39.6,7.3L307.2,160.2L307.2,160.2z"></path><path class="st1" d="M304.4,113.8c-2.1-5.4-10.1-25.3-18.4-15.6c1.9-2.2-8.5-5.9-9.9-6.2c-3.5-0.7-10.5-1.1-15.9,4.6
		c-4.8,5-6.9,12.5-9.6,19.2c-4,9.8-9.5,13-6,23.7c7.6,23.1,54.1,18.4,66.6-0.2C317.2,130.1,305.7,117.2,304.4,113.8z"></path><path class="st1" d="M273.6,155.8c-2.3,0-4.7-0.2-7-0.5c-11.8-1.6-19.9-7.2-22.7-15.6c-2.6-8.1-0.4-12.2,2.5-17.3
		c1.3-2.2,2.5-4.5,3.5-6.9c0.6-1.4,1.1-2.8,1.7-4.3c2.1-5.5,4.2-11.1,8.1-15.2c4.2-4.3,9.9-6,16.6-4.8c0.9,0.2,8.6,2.7,10.3,5.2
		c1.3-1.3,3.2-1.9,5-1.6c5.6,1,10.4,10.7,13.5,18.7l0,0c0.6,1.1,1.2,2.2,1.9,3.2c3.5,5.3,9.9,15.3,4.8,22.9
		C305.4,149.2,289.2,155.8,273.6,155.8z M272.1,92.4c-4.3-0.1-8.4,1.6-11.4,4.7c-3.7,3.8-5.8,9.3-7.8,14.6c-0.6,1.4-1.1,2.9-1.7,4.3
		c-1,2.4-2.2,4.8-3.5,7.1c-2.8,5-4.9,8.7-2.4,16.1c2.6,7.9,10.2,13.1,21.4,14.6c17,2.3,36.7-4.4,43.8-15.1
		c4.5-6.7-1.3-15.8-4.8-21.2c-0.8-1.1-1.4-2.3-2-3.5c-4.1-10.8-8.5-17-12.4-17.7c-1.6-0.3-3.2,0.5-4.7,2.3l0,0
		c-0.3,0.3-0.8,0.3-1.1,0.1s-0.3-0.8-0.1-1.1l0,0c0,0,0-0.1,0-0.2c-0.6-1.6-8-4.5-9.5-4.8C274.7,92.5,273.4,92.4,272.1,92.4z"></path><path class="st1" d="M267.5,161.7c-0.4,0-0.8-0.3-0.8-0.8s0.3-0.8,0.8-0.8l0,0c0.4,0,0.8,0.3,0.8,0.8S267.9,161.7,267.5,161.7z"></path><path class="st0" d="M255.9,118.1c0,0-3.1,13.5,0.4,23.1c1.8,5.5,6.7,9.4,12.5,9.9l2.1,17.5c0,0,1,8.9,11.8,6.2
		c6.3-1.6,11.4-6.4,13.4-12.6l-2.6-32.2c0,0-13.3-5.6-13.6-17.3C279.8,112.7,265.9,121.6,255.9,118.1L255.9,118.1z"></path><path class="st1" d="M278.8,176.1c-4.4,0.2-8.2-3-8.8-7.4l-2-16.9c-5.8-0.8-10.6-4.8-12.5-10.4c-3.4-9.3-0.7-22-0.4-23.4
		c0,0,0,0,0-0.1c0.1-0.4,0.5-0.7,0.9-0.6c0,0,0,0,0.1,0c9.6,3.3,23.1-5.2,23.2-5.3c0.2-0.1,0.5-0.1,0.8,0c0.2,0.1,0.4,0.4,0.4,0.6
		c0.3,11,13,16.6,13.1,16.6c0.3,0.1,0.4,0.4,0.5,0.6l2.6,32.3c0,0.1,0,0.2,0,0.2c-2,6.5-7.3,11.5-13.9,13.1
		C281.5,175.9,280.2,176.1,278.8,176.1z M256.5,119c-0.6,3-2.4,14,0.5,21.9c1.7,5.2,6.3,8.9,11.8,9.4c0.4,0,0.7,0.3,0.7,0.7
		l2.1,17.5c0.3,1.9,1.3,3.7,2.9,4.9c1.9,1.3,4.6,1.6,7.9,0.7c6-1.6,10.9-6.1,12.8-12l-2.6-31.7c-2.2-1-12.5-6.4-13.5-16.5
		C275.7,115.9,265.1,121.5,256.5,119z"></path><path class="st1" d="M268.7,151.1c0,0,9.5,0,14.7-2c0,0-4.2,14.5-13.1,15.4L268.7,151.1z"></path><path class="st1" d="M270.3,165.4c-0.4,0-0.7-0.3-0.8-0.7l-1.6-13.5c0-0.2,0-0.4,0.2-0.6c0.1-0.2,0.3-0.2,0.6-0.2h0
		c0.7,0,9.5,0,14.4-1.9c0.3-0.1,0.6,0,0.8,0.1c0.2,0.2,0.3,0.5,0.2,0.8c-0.2,0.6-4.4,14.9-13.7,16L270.3,165.4z M269.6,151.9
		l1.4,11.9c6.3-1.3,10-10,11.2-13.4C278.1,151.3,273.8,151.8,269.6,151.9z"></path><ellipse class="st1" transform="matrix(0.9979 -6.540313e-02 6.540313e-02 0.9979 -7.7061 18.081)" cx="272.3" cy="126.7" rx="1.4" ry="2.4"></ellipse><ellipse class="st1" transform="matrix(0.9979 -6.540313e-02 6.540313e-02 0.9979 -7.7875 17.2516)" cx="259.6" cy="127.6" rx="1.4" ry="2.4"></ellipse><path class="st0" d="M287.6,128.2c0,0,3.3-10.7,9.1-4.9c5.9,5.8-0.7,13.7-5.3,13.7"></path><path class="st1" d="M291.5,137.7L291.5,137.7c-0.5,0-0.8-0.3-0.8-0.8s0.3-0.8,0.8-0.8h0c2.2,0,5.1-2.3,6.2-5
		c1.1-2.5,0.5-5.5-1.5-7.3c-1.2-1.2-2.4-1.7-3.4-1.4c-2.3,0.6-4,4.5-4.5,6c-0.1,0.4-0.5,0.7-0.9,0.6c-0.4-0.1-0.7-0.5-0.6-0.9
		c0,0,0-0.1,0-0.1c0.1-0.2,1.9-6.1,5.5-7c1.6-0.4,3.2,0.2,4.9,1.8c2.5,2.3,3.2,5.9,1.9,8.9C297.7,135.1,294.4,137.7,291.5,137.7z"></path><path class="st0" d="M245.9,181.1L245.9,181.1c-0.3,0-0.5-0.3-0.5-0.6c0.5-6,1.9-11.9,4.2-17.5c0.1-0.3,0.4-0.4,0.7-0.3
		c0,0,0,0,0,0c0.3,0.1,0.4,0.4,0.3,0.7c0,0,0,0,0,0c-2.3,5.5-3.7,11.3-4.2,17.2C246.4,180.9,246.2,181.1,245.9,181.1L245.9,181.1z"></path><path class="st1" d="M245.9,181.9c-0.1,0-0.2,0-0.2,0c-0.6-0.1-1.1-0.7-1-1.4c0.5-6.1,2-12.1,4.3-17.8c0.3-0.6,1-0.9,1.7-0.7
		c0,0,0,0,0.1,0c0.3,0.1,0.5,0.4,0.6,0.7c0.1,0.3,0.1,0.7-0.1,1c-2.2,5.4-3.6,11.1-4.1,16.9C247.1,181.4,246.6,181.9,245.9,181.9z"></path><rect class="st0" x="87.1" y="249.3" width="318.7" height="7.3"></rect><path class="st1" d="M405.8,257.4H87.1c-0.4,0-0.8-0.3-0.8-0.8v-7.3c0-0.4,0.3-0.8,0.8-0.8h318.7c0.4,0,0.8,0.3,0.8,0.8v7.3
		C406.5,257,406.2,257.4,405.8,257.4z M87.8,255.9H405v-5.8H87.8L87.8,255.9z"></path><rect class="st0" x="159.4" y="245" width="98.2" height="4.3"></rect><path class="st1" d="M257.6,250.1h-98.2c-0.4,0-0.8-0.3-0.8-0.8V245c0-0.4,0.3-0.8,0.8-0.8h98.2c0.4,0,0.7,0.3,0.8,0.8v4.3
		C258.4,249.7,258,250.1,257.6,250.1z M160.2,248.6h96.7v-2.8h-96.7V248.6z"></path><path class="st0" d="M146.9,142.9h99.5c3.8,0,6.9,3.1,6.9,6.9v61.4c0,3.8-3.1,6.9-6.9,6.9h-99.5c-3.8,0-6.9-3.1-6.9-6.9v-61.4
		C140,146,143.1,142.9,146.9,142.9z"></path><path class="st1" d="M246.4,219h-99.5c-4.3,0-7.7-3.4-7.7-7.7v-61.4c0-4.3,3.4-7.7,7.7-7.7h99.5c4.3,0,7.7,3.4,7.7,7.7v61.4
		C254.1,215.6,250.7,219,246.4,219z M146.9,143.7c-3.4,0-6.2,2.8-6.2,6.2v61.4c0,3.4,2.8,6.2,6.2,6.2h99.5c3.4,0,6.2-2.8,6.2-6.2
		v-61.4c0-3.4-2.8-6.2-6.2-6.2L146.9,143.7z"></path><polygon class="st1" points="205.5,192.7 205.5,218.3 188.9,217.5 	"></polygon><path class="st1" d="M205.5,219L205.5,219l-16.6-0.7c-0.3,0-0.5-0.2-0.6-0.4c-0.1-0.2-0.1-0.5,0.1-0.8l16.6-24.8
		c0.2-0.3,0.5-0.4,0.8-0.3c0.3,0.1,0.5,0.4,0.5,0.7v25.6c0,0.2-0.1,0.4-0.2,0.5C205.9,218.9,205.7,219,205.5,219z M190.3,216.8
		l14.4,0.6v-22.3L190.3,216.8z"></path><path class="st0" d="M184.8,193c0,0-13,51.4-13.6,53.6c-0.7,2.4,1.4,2.8,4.6,2.8h31.1v-2.2h-13.2c0,0,5.7-25.8,11.9-54.5L184.8,193
		L184.8,193z"></path><path class="st1" d="M206.8,250.1h-31.1c-2.5,0-4.2-0.2-5-1.3c-0.5-0.7-0.6-1.6-0.3-2.5c0.6-2.2,13.5-53.1,13.6-53.6
		c0.1-0.3,0.4-0.6,0.7-0.6l20.7-0.2l0,0c0.2,0,0.4,0.1,0.6,0.3c0.1,0.2,0.2,0.4,0.1,0.6c-5.6,25.5-10.7,48.7-11.7,53.6h12.3
		c0.4,0,0.7,0.3,0.8,0.8v2.2C207.6,249.8,207.3,250.1,206.8,250.1C206.8,250.1,206.8,250.1,206.8,250.1z M185.4,193.7
		c-1.4,5.6-12.9,51-13.5,53.1c-0.2,0.4-0.2,0.8,0,1.2c0.6,0.7,2.9,0.7,3.8,0.7H206v-0.7h-12.5c-0.2,0-0.4-0.1-0.6-0.3
		c-0.1-0.2-0.2-0.4-0.1-0.6c0,0,5.5-25.3,11.7-53.5L185.4,193.7z"></path><circle class="st0" cx="137.1" cy="240" r="3.9"></circle><path class="st1" d="M137.1,244.7c-2.6,0-4.7-2.1-4.7-4.7c0-2.6,2.1-4.7,4.7-4.7c2.6,0,4.7,2.1,4.7,4.7
		C141.8,242.6,139.7,244.7,137.1,244.7L137.1,244.7z M137.1,236.9c-1.7,0-3.2,1.4-3.2,3.2c0,1.7,1.4,3.2,3.2,3.2
		c1.7,0,3.2-1.4,3.2-3.2c0,0,0,0,0,0C140.2,238.3,138.8,236.9,137.1,236.9C137.1,236.9,137.1,236.9,137.1,236.9z"></path><path class="st0" d="M153.6,249.3h-27c-1.5,0-2.8-1.2-2.8-2.8c0-4.8,3.9-8.6,8.7-8.6c0,0,11.3-0.5,17.1,2.9
		S156.5,249.3,153.6,249.3L153.6,249.3z"></path><path class="st1" d="M153.6,250.1h-27c-2,0-3.5-1.6-3.5-3.5c0-5.2,4.2-9.4,9.4-9.4c0.4,0,11.6-0.5,17.5,3c4.4,2.6,6.4,6.3,5.9,8.4
		C155.5,249.5,154.6,250.1,153.6,250.1z M133.9,238.6c-0.9,0-1.4,0-1.4,0c-4.4,0-7.9,3.5-7.9,7.9c0,0,0,0,0,0c0,1.1,0.9,2,2,2h27
		c0.5,0,0.7-0.2,0.7-0.5c0.4-1.3-1.3-4.4-5.2-6.7C144.8,238.9,137.1,238.6,133.9,238.6L133.9,238.6z"></path><path class="st0" d="M266,129.2c0,0-3.2,7.9-2.2,9.8s3.9,1.6,3.9,1.6"></path><path class="st1" d="M267.2,141.5c-1,0-3.1-0.2-4.1-2.1c-1.1-2.2,1.6-9.1,2.2-10.5c0.1-0.4,0.6-0.6,1-0.4c0,0,0,0,0,0
		c0.4,0.2,0.6,0.6,0.4,1c0,0,0,0,0,0c-1.5,3.6-2.8,8.2-2.2,9.2c0.8,1.5,3.1,1.3,3.1,1.3c0.4-0.1,0.8,0.2,0.9,0.6
		c0.1,0.4-0.2,0.8-0.6,0.9c0,0,0,0-0.1,0C267.7,141.5,267.5,141.5,267.2,141.5z"></path><path class="st0" d="M264.2,144.2c0,0,6.4,2.7,10.3-1"></path><path class="st1" d="M269.1,145.9c-1.8,0-3.5-0.3-5.2-1c-0.4-0.1-0.6-0.6-0.5-1c0.1-0.4,0.6-0.6,1-0.5c0,0,0.1,0,0.1,0
		c0.1,0,6,2.5,9.5-0.9c0.3-0.3,0.8-0.3,1.1,0c0.3,0.3,0.3,0.8,0,1.1C273.5,145.2,271.3,146,269.1,145.9z"></path><path class="st0" d="M229.7,221.6c0,0,6.2,0.7,8.2,4.2"></path><path class="st1" d="M237.9,226.6c-0.3,0-0.5-0.1-0.6-0.4c-1.8-3.1-7.6-3.8-7.6-3.8c-0.4,0-0.7-0.4-0.7-0.8c0-0.4,0.4-0.7,0.8-0.7
		c0,0,0,0,0,0c0.3,0,6.6,0.8,8.8,4.5c0.2,0.4,0.1,0.8-0.3,1C238.2,226.5,238.1,226.6,237.9,226.6z"></path><path class="st0" d="M137.2,238.2c0,0,3.4,2.9,1.7,11.2"></path><path class="st1" d="M138.9,250.2h-0.2c-0.4-0.1-0.7-0.5-0.6-0.9c1.6-7.7-1.4-10.5-1.5-10.5c-0.3-0.3-0.3-0.8-0.1-1.1
		c0.3-0.3,0.8-0.3,1.1-0.1c0.2,0.1,3.7,3.3,2,12C139.6,250,139.3,250.2,138.9,250.2z"></path><circle class="st0" cx="372.6" cy="90.5" r="31"></circle><path class="st1" d="M372.6,122.3c-17.6,0-31.8-14.2-31.8-31.8s14.2-31.8,31.8-31.8s31.8,14.2,31.8,31.8v0
		C404.4,108.1,390.2,122.3,372.6,122.3z M372.6,60.2c-16.7,0-30.3,13.6-30.3,30.3s13.6,30.3,30.3,30.3c16.7,0,30.3-13.6,30.3-30.3
		c0,0,0,0,0,0C402.9,73.8,389.3,60.3,372.6,60.2z"></path><polyline class="st0" points="359.3,100.6 373,91.3 385.3,70.5 	"></polyline><path class="st1" d="M359.3,101.4c-0.3,0-0.5-0.1-0.6-0.3c-0.2-0.3-0.1-0.8,0.2-1l13.5-9.2l12.3-20.7c0.2-0.4,0.6-0.5,1-0.3
		c0.4,0.2,0.5,0.6,0.3,1c0,0,0,0.1,0,0.1l-12.4,20.8c-0.1,0.1-0.1,0.2-0.2,0.2l-13.7,9.3C359.6,101.3,359.4,101.4,359.3,101.4z"></path><path class="st1" d="M309.5,211.1c-0.4,0-0.7-0.2-0.7-0.6l-3-15c-0.1-0.4,0.1-0.8,0.5-0.9c0.4-0.1,0.8,0.1,0.9,0.5c0,0,0,0,0,0.1
		l2.9,14.3l15.2-2.3c0.4-0.1,0.8,0.2,0.9,0.6c0,0,0,0,0,0c0.1,0.4-0.2,0.8-0.6,0.9l-15.9,2.4L309.5,211.1z"></path><path class="st0" d="M184.9,99.3c-3.7,7.4-12.6,10.4-19.9,6.7c-7.4-3.7-10.4-12.6-6.7-19.9c2.5-5.1,7.7-8.3,13.3-8.3
		c1,0,1.9,0.1,2.9,0.3c-6.6,1.4-10.7,7.9-9.3,14.5s7.9,10.7,14.5,9.3C181.6,101.4,183.4,100.6,184.9,99.3z"></path><path class="st1" d="M171.6,108.3c-8.6-0.2-15.5-7.4-15.2-16c0.2-8.3,6.9-15,15.2-15.2c1,0,2,0.1,3.1,0.3c0.3,0.1,0.6,0.4,0.6,0.7
		c0,0.4-0.2,0.7-0.6,0.7c-6.2,1.4-10.1,7.4-8.7,13.6c1.4,6.2,7.4,10.1,13.6,8.7c1.8-0.4,3.5-1.2,4.9-2.4c0.3-0.3,0.8-0.2,1.1,0.1
		c0.2,0.2,0.2,0.5,0.1,0.8C183,105,177.5,108.3,171.6,108.3z M171.1,78.6c-7.8,0.3-13.9,6.9-13.6,14.7s6.9,13.9,14.7,13.6
		c4-0.1,7.8-2,10.3-5.1c-6.5,2.9-14.2,0-17.1-6.5C162.6,89,165.1,81.8,171.1,78.6z"></path></g></svg>